<?xml version="1.0" encoding="utf-8"?>
<!-- Uploaded to: SVG Repo, www.svgrepo.com, Generator: SVG Repo Mixer Tools -->
<svg fill="#000000" version="1.1" id="Layer_1" xmlns="http://www.w3.org/2000/svg" xmlns:xlink="http://www.w3.org/1999/xlink" 
	 width="800px" height="800px" viewBox="0 0 256 245" enable-background="new 0 0 256 245" xml:space="preserve">
<path d="M253.543,121.141c-1.584-4.874-6.819-7.542-11.693-5.958c-1.128,0.366-2.13,0.935-2.997,1.642l-42.395-12.109l30.483-9.904
	c2.372,2.005,5.689,2.782,8.86,1.752c4.874-1.583,7.542-6.818,5.958-11.693c-1.584-4.874-6.818-7.542-11.693-5.958
	c-3.163,1.028-5.387,3.596-6.133,6.602l-30.882,10.034l26.727-34.912c1.378,0.207,2.823,0.116,4.238-0.344
	c4.874-1.584,7.542-6.818,5.958-11.693s-6.818-7.542-11.693-5.958c-4.866,1.581-7.531,6.801-5.965,11.668l-29.772,38.889
	c-1.181-0.01-2.383,0.158-3.569,0.543c-4.127,1.341-6.94,4.846-7.606,8.851l-33.456,10.87c-1.347-1.597-3.071-2.861-5.037-3.661
	V74.63c3.755-1.819,6.351-5.655,6.351-10.107c0-1.359-0.254-2.656-0.696-3.862l26.783-39.927c0.268,0.023,0.537,0.041,0.811,0.041
	c5.126,0,9.282-4.156,9.282-9.282s-4.156-9.282-9.282-9.282s-9.282,4.156-9.282,9.282c0,1.192,0.233,2.327,0.642,3.373
	l-24.609,36.686V19.375c2.636-1.637,4.397-4.55,4.397-7.882c0-5.126-4.156-9.282-9.282-9.282c-5.126,0-9.282,4.156-9.282,9.282
	c0,3.331,1.761,6.244,4.397,7.882v32.51L98.161,15.626c0.621-1.246,0.98-2.646,0.98-4.132c0-5.126-4.156-9.282-9.282-9.282
	s-9.282,4.156-9.282,9.282c0,5.121,4.148,9.273,9.268,9.281l27.551,40.044c-0.406,1.161-0.638,2.404-0.638,3.704
	c0,4.452,2.596,8.288,6.351,10.107v35.174c-1.965,0.8-3.69,2.064-5.037,3.661l-33.444-10.867c-0.661-4.011-3.475-7.524-7.608-8.867
	c-1.246-0.405-2.509-0.567-3.748-0.537l-29.89-38.104c0.106-0.249,0.206-0.501,0.291-0.764c1.584-4.874-1.084-10.109-5.958-11.693
	c-4.874-1.584-10.109,1.084-11.693,5.958c-1.583,4.874,1.084,10.109,5.958,11.693c1.13,0.367,2.278,0.497,3.397,0.432l27.243,34.73
	l-30.551-9.927c-0.742-3.013-2.968-5.589-6.137-6.618c-4.874-1.584-10.109,1.084-11.693,5.958s1.084,10.109,5.958,11.693
	c3.165,1.028,6.476,0.256,8.847-1.741l30.799,10.007L17.77,117.373c-0.991-0.973-2.21-1.744-3.621-2.202
	c-4.874-1.584-10.109,1.084-11.693,5.958s1.084,10.109,5.958,11.693c4.871,1.582,10.101-1.081,11.689-5.948l46.284-13.81
	c1.062,0.88,2.298,1.585,3.689,2.037c4.333,1.408,8.895,0.033,11.775-3.13l33.208,10.79c0.154,2.162,0.836,4.173,1.92,5.913
	l-20.788,28.613c-4.013-0.601-8.213,0.991-10.763,4.5c-0.737,1.014-1.27,2.112-1.625,3.246l-45.431,16.644
	c-0.202-0.176-0.409-0.348-0.63-0.508c-4.147-3.013-9.951-2.094-12.964,2.053c-3.013,4.147-2.094,9.951,2.053,12.964
	c4.147,3.013,9.951,2.094,12.964-2.053c0.7-0.964,1.179-2.019,1.464-3.106l41.455-15.188l-18.896,26.008
	c-3.094-0.224-6.23,1.097-8.188,3.792c-3.013,4.147-2.094,9.951,2.053,12.964s9.951,2.094,12.964-2.053
	c1.958-2.695,2.246-6.086,1.076-8.96l19.063-26.238L89.7,225.286c-1.233,0.642-2.345,1.564-3.218,2.765
	c-3.013,4.147-2.094,9.951,2.053,12.964c4.147,3.013,9.951,2.094,12.964-2.053c3.01-4.143,2.095-9.941-2.043-12.956l1.192-48.211
	c1.118-0.728,2.13-1.658,2.961-2.801c2.684-3.694,2.782-8.469,0.651-12.19l20.625-28.388c0.998,0.246,2.035,0.39,3.109,0.39
	c1.074,0,2.111-0.145,3.109-0.39l20.691,28.48c-2.072,3.706-1.954,8.429,0.705,12.089c0.695,0.957,1.514,1.769,2.417,2.436
	l2.26,48.15c-0.215,0.131-0.43,0.265-0.638,0.416c-4.147,3.013-5.066,8.817-2.053,12.964c3.013,4.147,8.817,5.066,12.964,2.053
	c4.147-3.013,5.066-8.817,2.053-12.964c-0.71-0.977-1.579-1.768-2.541-2.378l-2.102-44.781l19.399,26.701
	c-1.167,2.873-0.879,6.262,1.078,8.955c3.013,4.147,8.817,5.066,12.964,2.053c4.147-3.013,5.066-8.817,2.053-12.964
	c-1.959-2.696-5.098-4.018-8.194-3.791l-18.91-26.028l41.306,14.426c0.232,1.363,0.764,2.695,1.631,3.889
	c3.013,4.147,8.817,5.066,12.964,2.053c4.147-3.013,5.066-8.817,2.053-12.964c-3.013-4.147-8.817-5.066-12.964-2.053
	c-0.003,0.003-0.006,0.005-0.01,0.008l-45.895-16.029c-0.354-1.174-0.896-2.312-1.658-3.36c-2.574-3.542-6.829-5.128-10.875-4.48
	l-20.796-28.624c1.084-1.74,1.766-3.751,1.92-5.913l33.206-10.789c2.88,3.171,7.448,4.551,11.787,3.141
	c1.453-0.472,2.742-1.214,3.834-2.15l45.925,13.117c0.061,0.266,0.129,0.532,0.215,0.797c1.584,4.874,6.818,7.542,11.693,5.958
	C252.459,131.25,255.127,126.016,253.543,121.141z"/>
</svg>